<?xml version="1.0" encoding="UTF-8"?>
<svg id="Layer_2" data-name="Layer 2" xmlns="http://www.w3.org/2000/svg" viewBox="0 0 233.04 169.06">
  <defs>
    <style>
      .cls-1 {
        stroke-width: 1.5px;
      }

      .cls-1, .cls-2 {
        fill: none;
        stroke: #231f20;
        stroke-miterlimit: 10;
      }

      .cls-3 {
        fill: #231f20;
        stroke-width: 0px;
      }

      .cls-2 {
        stroke-width: 4px;
      }
    </style>
  </defs>
  <g id="Layer_1-2" data-name="Layer 1">
    <g>
      <path class="cls-3" d="M84.95,107.71c-7.23,13.18-13.73,23.95-19.51,32.3l16.94,16.75-9.76,9.64c-11.65-12.05-27.42-27.28-47.29-45.68-1.96,10.77-3.39,18.2-4.28,22.3-1.69,8.44-3.47,15.83-5.34,22.18H0c2.42-6.99,5.32-17.48,8.72-31.46,2.24-9.08,4.03-16.63,5.37-22.66-3.67-3.45-6.67-5.98-8.99-7.59l10.08-9.28c15.45,12.78,28.72,24.71,39.83,35.8l11.25-18.68-9.89-7.23,8.54-10,20.05,13.62Z"/>
      <path class="cls-3" d="M156.9,108.31c0,2.17-.68,5.79-2.03,10.85-4.87,18.32-16.66,33.91-35.4,46.77l-7.97-10.25c13.91-9.64,23.44-21.46,28.59-35.44.63-1.69.95-3.41.95-5.18,0-1.61-.48-3.07-1.43-4.4-.95-1.33-2.29-1.99-4.01-1.99h-31.94c-1.11,0-1.79-.23-2.05-.7-.12-.21-.12-.42-.12-.5,0-9.21.09-11.24.09-11.24.12-2.62.4-8.45-3.16-11.66-.93-.83-1.89-1.29-2.56-1.55,2.18-.95,4.37-1.89,6.55-2.84,1.55.34,3.47.64,5.67.68,2.58.06,4.8-.23,6.53-.59,1.44.98,2.89,1.96,4.33,2.94-.75.28-1.32.65-1.76,1.03-3.91,3.36-1.62,10.99-1.49,11.41h31.48c1.94,0,3.63.43,5.06,1.29,1.28.77,2.03,1.67,2.36,2.09,2.77,3.4,2.42,8.07,2.3,9.28Z"/>
      <path class="cls-3" d="M233.04,152.91c0,7.07-3.62,10.92-10.87,11.57l-51.86,4.58-1.08-12.78,43.63-3.86c3.7-.32,5.56-1.85,5.56-4.58v-28.81c0-3.7-1.36-5.95-4.08-6.75l-14.02-4.34h-1.09c-2.54,0-4.45,1.01-5.72,3.01l-4.36,6.99c-.63,1.05-.95,2.09-.95,3.13,0,1.45.63,2.53,1.9,3.25l8.15,4.82-7.34,10.73-17.36-10.34c-1.62-.96-2.42-2.85-2.42-5.65,0-2,.5-3.77,1.49-5.29l15.48-24.41c1.35-2.08,2.96-3.13,4.85-3.13.54,0,11.92,3.53,34.14,10.59,1.81.56,3.25,1.79,4.34,3.67,1.08,1.89,1.62,3.79,1.62,5.71v41.87Z"/>
      <path class="cls-2" d="M112.88,82.68c6.12-1.59,14.08-3.01,23.41-3.04,14.4-.05,26.03,3.22,33.59,6.04-3.43-4.48-6.87-8.96-10.3-13.43,10.78-5.33,21.57-10.65,32.35-15.98l-39.13-.39c6.59-9.26,13.17-18.52,19.76-27.78l-32.55,15.94c-1.87-12.36-3.73-24.71-5.6-37.07-5.94,13.07-11.88,26.14-17.83,39.21-8.22-10.57-16.43-21.13-24.65-31.7-.34,11.19-.68,22.37-1.02,33.56l-37.96-16.52,15.65,25.04-41.09-.39c9.99,4.63,19.99,9.25,29.98,13.88-6.19,4.6-12.38,9.2-18.57,13.8,8.29-2.22,19.33-4.34,32.42-4.6,12.53-.25,23.21,1.28,31.37,3.04"/>
      <path class="cls-1" d="M155.55,76.79l-5.62-6.11c6.48-3.17,12.96-6.35,19.43-9.52-8.72-.13-17.43-.26-26.15-.39,3.72-5.91,7.43-11.83,11.15-17.74-6.32,2.98-12.64,5.95-18.95,8.93-1.18-8.74-2.36-17.48-3.55-26.21-4.76,9.98-9.52,19.96-14.28,29.93-6.78-8.17-13.57-16.35-20.35-24.52-.25,8.22-.51,16.45-.76,24.67-9.75-4.01-19.49-8.01-29.24-12.02,3.65,6.02,7.3,12.03,10.95,18.05-8.91-.08-17.82-.17-26.73-.25,5.41,2.51,10.82,5.01,16.24,7.52l-9.33,6.51c20.06-.71,29.79,1.08,34.96,3,.55.2,2.7,1.07,5.74,1.83,2.5.62,8.01,1.95,14.48,1.17,3.74-.45,6.42-1.44,7.41-1.79,5.36-1.88,15.18-3.56,34.6-3.06Z"/>
    </g>
    <path class="cls-1" d="M26.47,38.24c3.63-.5,7.26-1.01,10.89-1.51,2.76,2.52,5.53,5.03,8.29,7.55-6.39-2.01-12.79-4.03-19.18-6.04Z"/>
    <path class="cls-1" d="M153.25,22.01c2.7-4.43,5.41-8.86,8.11-13.29,2.86-.58,5.72-1.16,8.58-1.75-5.56,5.01-11.13,10.03-16.69,15.04Z"/>
    <path class="cls-1" d="M175.57,74.22c4.38-.03,8.77-.07,13.15-.1-2.19,1.55-4.38,3.1-6.57,4.65-2.19-1.52-4.39-3.04-6.58-4.55Z"/>
  </g>
</svg>