<svg width="174" height="103" viewBox="0 0 174 103" fill="none" xmlns="http://www.w3.org/2000/svg">
<path d="M97.5015 19.5532C97.6704 19.612 97.793 19.8583 97.8191 20.1373C98.1188 23.779 99.2396 25.1162 101.809 24.8645C104.087 24.6302 106.333 24.1381 108.575 23.6968C109.194 23.5763 109.945 23.4589 110.34 22.9239C112.039 20.6269 110.276 17.5981 110.466 14.9317C110.5 14.4938 109.449 13.3894 108.868 13.2629C107.539 12.961 106.125 12.7909 104.858 13.1263C104.019 13.3457 103.003 14.304 102.707 15.3608C102.274 16.9292 101.652 16.9492 100.677 16.7426C92.1543 14.9311 83.6241 13.1407 75.0964 11.3702C75.0964 11.3702 75.0865 11.3715 75.0766 11.3727C74.652 11.2865 74.6293 12.3583 75.0556 12.5351C82.4629 15.7009 90.0684 17.0462 97.4929 19.5644L97.5015 19.5532Z" fill="black"/>
<path d="M4.12172 37.2602C4.26743 37.685 4.48127 38.0909 4.54764 38.526C4.99427 41.4327 5.43097 44.3407 5.82672 47.2439C6.56982 52.7541 7.28318 58.2682 8.02628 63.7784C8.14817 64.7205 7.95469 65.0178 7.3746 64.8206L3.82325 37.3694C3.91858 37.3268 4.02511 37.2928 4.12044 37.2503L4.12172 37.2602Z" fill="black"/>
<path d="M32.2515 92.2658C32.1362 91.6858 32.1345 91.5953 32.1121 91.578C29.8754 90.3448 28.2191 87.3626 25.3103 88.1826C23.6465 88.6499 21.8779 88.6972 20.1536 88.9304C20.122 89.0756 20.0904 89.2209 20.0587 89.3661C21.2949 90.1137 22.6183 90.6786 23.7399 91.6326C26.632 94.112 29.3259 91.7871 32.2502 92.2558L32.2515 92.2658Z" fill="black"/>
<path d="M27.408 86.8625C25.9286 83.7667 23.9936 83.4625 21.7779 83.9508C20.1112 84.3176 18.4025 84.4379 16.5009 84.704C17.7374 86.3893 18.9132 87.5278 20.5934 87.4214C22.8329 87.2728 25.0547 87.0661 27.4093 86.8724L27.408 86.8625Z" fill="black"/>
<path d="M9.55769 76.6283C11.1153 79.1593 12.8676 80.2334 15.2339 79.5844C16.8209 79.1472 18.5075 79.0904 20.1625 78.8662C18.9373 76.3324 17.6921 75.5154 15.5513 75.8025C13.5988 76.0651 11.6477 76.3377 9.55641 76.6183L9.55769 76.6283Z" fill="black"/>
<path d="M24.1818 82.5005C22.9952 80.5769 21.6795 79.2144 19.43 79.9088C17.6463 80.4622 15.7225 80.4791 13.8294 80.966C15.1043 82.0918 15.9371 83.9301 17.917 83.4118C19.955 82.8759 22.0806 82.7825 24.1917 82.4993L24.1818 82.5005Z" fill="black"/>
<path d="M16.5445 74.5951C15.8761 73.4816 15.3223 72.4743 14.6969 71.5368C14.4958 71.2301 14.0974 70.8783 13.8284 70.903C11.4629 71.1687 9.1077 71.5137 6.65076 71.8518C6.8317 72.393 6.93132 72.7734 7.06677 73.1189C8.20025 75.9569 8.19256 75.8974 10.6018 75.4244C12.5302 75.0539 14.4929 74.8705 16.5432 74.5851L16.5445 74.5951Z" fill="black"/>
<path d="M144.171 65.102C144.641 63.6699 144.861 62.1693 145.634 60.819C147.085 58.3221 150.782 57.9043 152.907 59.9083C153.492 60.4577 153.949 61.1045 154.307 61.764C155.404 63.7799 155.199 65.8534 153.757 67.8851C152.624 69.4938 150.648 70.1931 148.956 69.5852C146.492 68.704 144.718 67.3807 144.569 65.1412C144.437 65.1281 144.294 65.1164 144.161 65.1033L144.171 65.102ZM148.905 65.6088C149.324 65.1816 150.128 64.6944 150.071 64.3287C150.016 63.9023 149.198 63.5845 148.716 63.2132C148.252 63.596 147.787 63.9788 147.076 64.5648C147.882 65.0253 148.393 65.3121 148.904 65.5989L148.905 65.6088Z" fill="black"/>
<path d="M156.645 66.2715L157.164 68.1C157.164 68.1 155.383 70.7807 152.703 71.7324C150.014 72.6953 150.283 70.7952 150.283 70.7952C150.283 70.7952 156.688 68.8674 156.645 66.2715Z" fill="black"/>
<path d="M158.861 63.9179C158.861 63.9179 165.124 52.4697 163.269 47.7184C161.404 42.9684 156.151 56.4539 156.151 56.4539C156.151 56.4539 154.166 76.968 158.861 63.9179Z" fill="black"/>
<path d="M161.47 56.2597L166.788 55.3599C167.608 55.2237 168.175 54.4646 168.067 53.6316L166.553 41.929C166.538 41.81 166.531 41.6798 166.546 41.557L167.321 34.6101C167.356 34.2627 167.28 33.9095 167.091 33.6114L165.254 30.7131C164.936 30.2097 164.346 29.9331 163.751 30.0101C163.017 30.105 162.449 30.7028 162.404 31.4448L161.668 42.9039C161.667 42.9746 161.665 43.0354 161.664 43.1061L162.495 55.6128" fill="black"/>
<path d="M152.394 71.7624C151.811 71.3841 151.064 71.0673 150.269 70.7668C149.123 70.3302 147.881 69.9262 146.858 69.4233C146.417 69.2082 145.885 69.4585 145.744 69.9304C145.519 70.6855 145.264 71.5958 145.095 72.1622C143.946 74.9728 142.21 75.9738 138.805 73.9741C137.998 73.5037 137.322 72.8753 136.604 72.2321C136.205 71.8804 135.575 72.0729 135.45 72.5931C134.922 74.9 134.501 77.2535 131.408 78.5208C127.912 79.9511 126.226 78.0618 124.24 76.3524C123.877 76.0365 123.314 76.21 123.182 76.6708C123.028 77.1949 122.891 77.6966 122.804 78.1919C122.388 80.5851 120.656 81.9284 118.254 82.8441C115.958 83.726 114.297 82.8922 112.784 81.7166C112.144 81.2145 111.612 80.6078 111 79.9307C110.729 79.633 110.231 79.7579 110.13 80.1441C109.927 80.9165 109.737 81.6268 109.619 82.3479C109.189 84.8739 107.41 86.2435 104.799 87.1056C102.178 87.969 100.192 87.268 98.4391 85.8008C97.8068 85.2776 97.2473 84.6945 96.5074 83.9634C96.3817 83.8486 96.1798 83.9252 96.1607 84.089C95.9024 86.613 94.9276 88.665 93.1219 90.4514C92.9242 90.6383 92.8473 91.213 92.9804 91.3067C93.3139 91.5459 93.8271 91.7719 94.2311 91.6994C95.0987 91.5468 95.932 91.2071 96.773 90.9269C108.478 87.0935 120.225 83.3554 131.883 79.387C138.787 77.0316 145.574 74.3084 152.394 71.7624Z" fill="black"/>
<path d="M81.5282 84.076C82.1514 82.1905 82.4295 80.2084 83.46 78.4315C85.3721 75.1289 90.2531 74.5882 93.0552 77.2305C93.8249 77.9578 94.4289 78.8073 94.9039 79.6736C96.3566 82.3291 96.0757 85.0678 94.1832 87.7427C92.6828 89.8627 90.0796 90.7843 87.8596 89.9926C84.6149 88.8393 82.2705 87.0856 82.0692 84.127C81.8856 84.1104 81.7118 84.0926 81.5282 84.076ZM87.7651 84.7413C88.3171 84.1758 89.3737 83.5349 89.3009 83.0503C89.2178 82.4863 88.1456 82.0704 87.5084 81.5882C86.8979 82.0907 86.2886 82.6031 85.3492 83.3699C86.416 83.9781 87.0899 84.3548 87.7638 84.7314L87.7651 84.7413Z" fill="black"/>
<path d="M73.5877 87.6242C72.1083 84.5284 70.1733 84.2242 67.9576 84.7125C66.2909 85.0793 64.5822 85.1996 62.6806 85.4657C63.9171 87.151 65.0929 88.2896 66.7731 88.1831C69.0126 88.0346 71.2344 87.8278 73.589 87.6341L73.5877 87.6242Z" fill="black"/>
<path d="M56.4708 77.2948C58.0284 79.8258 59.7807 80.8999 62.147 80.251C63.734 79.8137 65.4206 79.7569 67.0755 79.5327C65.8503 76.9989 64.6052 76.1819 62.4644 76.469C60.5119 76.7316 58.5608 77.0042 56.4695 77.2848L56.4708 77.2948Z" fill="black"/>
<path d="M70.4025 83.5796C69.2159 81.656 67.9002 80.2935 65.6507 80.9879C63.867 81.5413 61.9433 81.5582 60.0501 82.0452C61.325 83.1709 62.1578 85.0092 64.1376 84.4909C66.1757 83.955 68.3013 83.8616 70.4124 83.5784L70.4025 83.5796Z" fill="black"/>
<path d="M63.9468 75.2991C63.2784 74.1857 62.7246 73.1784 62.0992 72.2409C61.8982 71.9342 61.4997 71.5824 61.2307 71.6071C58.8652 71.8728 56.51 72.2178 54.0531 72.5558C54.234 73.0971 54.3337 73.4774 54.4691 73.8229C55.6026 76.6609 55.5949 76.6015 58.0041 76.1285C59.9325 75.758 61.8952 75.5747 63.9455 75.2892L63.9468 75.2991Z" fill="black"/>
<path d="M51.2588 67.1697C51.7957 68.28 52.2593 69.3695 52.839 70.3432C53.0202 70.6525 53.5421 70.8673 53.8793 70.8237C56.2758 70.5641 58.6633 70.2351 61.331 69.8899C60.6456 68.5669 60.1376 67.5235 59.5764 66.5373C59.4477 66.322 59.0849 66.1673 58.8568 66.1968C56.3934 66.4853 53.9352 66.8134 51.2575 67.1598L51.2588 67.1697Z" fill="black"/>
<path d="M8.30993 70.0237L59.1548 65.15C59.5925 65.1035 60.0023 64.9194 60.316 64.6166L69.5066 55.845C69.7944 55.5759 70.1533 55.3883 70.5487 55.3271L74.4891 54.6862L79.1409 53.9331C79.5859 53.8655 79.9905 53.6417 80.2892 53.3006L92.3143 39.7054C93.4845 38.3844 92.4386 36.3013 90.6743 36.459L58.3023 39.3865C58.1337 39.4083 57.9565 39.4413 57.7931 39.5028L17.3901 54.6315C16.958 54.7984 16.5946 55.1075 16.3644 55.5104L15.3662 57.3033C15.1779 57.6403 14.8913 57.9193 14.5411 58.0957L7.07422 61.8749C6.40216 62.214 5.98841 62.9128 6.00401 63.657L6.09635 68.1119C6.12617 69.2777 7.14831 70.164 8.29872 70.0151L8.30993 70.0237Z" fill="black"/>
<path d="M75.4306 57.2871L76.5799 69.2888C76.6226 69.6967 76.8611 70.0591 77.2291 70.2535L85.429 74.557C85.6888 74.6948 85.9755 74.7284 86.2605 74.6713L157.052 58.979C157.513 58.879 157.88 58.519 157.981 58.0522L159.497 51.3726C159.611 50.8536 160.046 50.4747 160.574 50.4265C161.241 50.3604 161.738 49.7616 161.672 49.0946L161.133 43.447C161.062 42.7404 160.412 42.2396 159.722 42.3592L76.4495 55.9655C75.8173 56.0674 75.3683 56.6498 75.4306 57.2871Z" fill="black"/>
<path d="M88.3572 53.1543L158.114 41.3873C159.614 41.1327 160.631 39.7206 160.386 38.2196C160.283 37.5775 160.411 36.9258 160.741 36.3588L161.651 34.8192C162.04 34.1639 162.139 33.3746 161.934 32.6449L161.148 29.9232C160.765 28.6014 159.477 27.7598 158.119 27.9455L96.3562 36.4198C95.6422 36.5121 94.9951 36.8882 94.5534 37.4495L85.7246 48.7053C84.1666 50.6916 85.8682 53.557 88.3546 53.1345L88.3572 53.1543Z" fill="black"/>
<path d="M75.2878 62.4982L74.5911 57.1131L70.5151 57.6404L62.2212 65.2374L65.0871 74.9197L76.5772 72.4652L75.2878 62.4982Z" fill="black"/>
<path d="M65.8592 75.8989C65.8592 75.8989 75.9661 84.6546 76.7056 73.4572Z" fill="black"/>
<path d="M95.5228 80.3295C96.1461 78.4439 96.4241 76.4618 97.4546 74.6849C99.3667 71.3823 104.248 70.8417 107.05 73.484C107.819 74.2112 108.423 75.0607 108.899 75.9269C110.351 78.5825 110.07 81.3212 108.178 83.9961C106.677 86.1162 104.074 87.0378 101.854 86.246C98.6095 85.0928 96.2651 83.3391 96.0639 80.3805C95.8802 80.3639 95.7065 80.346 95.5228 80.3295ZM101.761 81.0046C102.313 80.4392 103.37 79.7983 103.297 79.3137C103.214 78.7497 102.141 78.3338 101.504 77.8515C100.894 78.354 100.284 78.8664 99.3451 79.6333C100.412 80.2414 101.086 80.6181 101.76 80.9947L101.761 81.0046Z" fill="black"/>
<path d="M109.417 75.7995C110.009 73.9885 110.288 72.0871 111.268 70.3873C113.097 67.2264 117.779 66.7015 120.466 69.2376C121.201 69.9291 121.791 70.7501 122.241 71.5792C123.63 74.1321 123.364 76.7479 121.549 79.322C120.118 81.3524 117.621 82.2402 115.485 81.4778C112.367 80.3687 110.124 78.6927 109.938 75.8531C109.764 75.8352 109.59 75.8173 109.417 75.7995ZM115.398 76.4374C115.933 75.8943 116.942 75.2797 116.872 74.8149C116.793 74.2806 115.771 73.8682 115.158 73.4132C114.576 73.9019 113.983 74.382 113.09 75.1226C114.114 75.7061 114.755 76.0668 115.408 76.4361L115.398 76.4374Z" fill="black"/>
<path d="M122.802 71.9405C123.322 70.3506 123.561 68.6862 124.425 67.1829C126.032 64.4038 130.138 63.9532 132.503 66.1782C133.147 66.7906 133.663 67.5104 134.06 68.2355C135.277 70.4778 135.05 72.7759 133.456 75.029C132.195 76.8156 130.007 77.5928 128.135 76.9174C125.397 75.9406 123.432 74.4705 123.261 71.9819C123.108 71.9714 122.955 71.951 122.802 71.9405ZM128.057 72.5008C128.52 72.0275 129.409 71.4891 129.346 71.0838C129.285 70.6077 128.383 70.2606 127.835 69.8474C127.326 70.2763 126.805 70.6966 126.013 71.3536C126.916 71.862 127.482 72.182 128.047 72.5021L128.057 72.5008Z" fill="black"/>
<path d="M134.329 68.7553C134.799 67.3232 135.018 65.8227 135.791 64.4723C137.243 61.9754 140.94 61.5576 143.065 63.5616C143.65 64.111 144.107 64.7578 144.464 65.4174C145.562 67.4332 145.356 69.5067 143.915 71.5384C142.782 73.1471 140.806 73.8465 139.114 73.2385C136.65 72.3573 134.876 71.034 134.727 68.7945C134.594 68.7815 134.452 68.7697 134.319 68.7566L134.329 68.7553ZM139.062 69.2522C139.48 68.825 140.285 68.3378 140.227 67.9721C140.172 67.5457 139.354 67.228 138.873 66.8567C138.408 67.2395 137.943 67.6223 137.233 68.2083C138.038 68.6687 138.549 68.9555 139.06 69.2423L139.062 69.2522Z" fill="black"/>
<path d="M72.4639 82.9903C71.5889 81.9943 71.9035 80.4512 73.1005 79.8829C75.6467 78.6763 79.2561 76.6464 79.1295 74.8881C79.0263 73.389 80.4335 73.822 81.7326 74.511C82.8042 75.0782 83.0869 76.4836 82.3443 77.4468C80.8518 79.3944 78.9164 82.7504 80.5048 85.5195C81.1697 86.6838 81.8671 87.6322 82.529 88.3835C83.5698 89.5698 82.8634 91.4358 81.2977 91.6484C80.6432 91.7331 79.9873 91.4953 79.5498 90.9973L72.4552 83.0015L72.4639 82.9903Z" fill="black"/>
<path d="M76.9044 59.6371C76.4933 60.6684 77.0259 61.3557 77.5654 61.9413C76.6637 63.389 76.9586 65.902 78.1584 67.1483C79.2523 68.2773 80.3168 69.4907 81.4449 70.4943C81.979 70.9596 82.64 71.2371 83.2242 71.2321C84.2016 71.2266 85.153 70.9423 86.1185 70.7669C86.5225 70.6945 86.7268 70.3252 86.6322 69.6719C86.3827 67.8993 86.1233 66.128 85.8156 64.3729C85.7724 64.1164 85.4898 63.8807 85.2981 63.724C84.9694 63.4438 84.9373 63.1959 85.0827 62.683C85.2489 62.0968 85.391 61.4029 85.356 60.7419C85.2973 59.5093 85.0861 58.2661 84.9865 57.0286C84.9168 56.0999 84.639 55.8232 84.0999 55.9434C82.3155 56.3356 80.5259 56.6881 78.7476 57.0493C78.325 57.1342 77.8848 57.1609 77.4673 57.2855C77.1947 57.3611 76.9462 57.5445 76.5205 57.7609C77.1202 58.5 77.1633 58.9885 76.897 59.6582L76.9044 59.6371ZM94.4114 61.214C94.5143 60.9183 94.6927 60.5827 94.6654 60.2938C94.4607 58.5557 94.2151 56.8128 93.9323 55.0949C93.9041 54.8767 93.5108 54.5646 93.3323 54.5877C90.8728 54.9059 88.4283 55.2625 85.974 55.6203C85.4384 55.6896 85.2581 56.1666 85.3896 57.0269C85.6015 58.4313 85.7565 59.8632 85.9969 61.2539C86.0707 61.6679 86.3638 62.0635 86.6058 62.375C86.9451 62.8152 87.0978 63.1382 86.7441 63.6781C86.5753 63.9318 86.4488 64.5128 86.5381 64.8139C86.6301 65.1347 86.9955 65.3093 87.2518 65.498C87.3514 65.5658 87.4739 65.4995 87.5929 65.4841C89.8752 65.1989 92.1488 64.9249 94.4298 64.6299C95.1736 64.5336 95.397 64.0005 95.0735 62.903C94.9515 62.5053 94.5586 62.2739 94.171 61.8501C94.2557 61.6476 94.3503 61.4437 94.4312 61.2114L94.4114 61.214ZM152.883 44.3629C152.477 44.4254 152.355 44.7236 152.469 45.3743C152.649 46.3795 152.84 47.3833 152.981 48.3936C153.162 49.6407 153.285 50.9053 154.026 51.3337C154.022 52.2318 153.942 52.9379 154.04 53.6209C154.227 55.0689 154.504 56.5052 154.751 57.9454C154.999 59.3956 155.453 59.7099 156.116 58.8376C156.409 58.4468 156.668 57.9595 156.908 57.4747C157.905 55.44 158.889 53.3768 159.887 51.352C160.335 50.4471 160.482 49.4801 160.211 48.2447C159.92 46.9311 159.707 45.5975 159.475 44.2663L152.902 44.3603L152.883 44.3629ZM112.971 58.6919C112.912 59.1734 112.915 59.7378 113.017 60.2186C113.063 60.4144 113.461 60.6049 113.659 60.5793C116.002 60.2157 118.332 59.8336 120.663 59.3808C120.908 59.3289 121.197 58.8278 121.256 58.4269C121.346 57.8001 121.047 57.4355 120.62 57.41C120.518 57.403 120.417 57.2447 120.237 57.0966C121.262 55.6732 120.401 54 120.171 52.4567C119.816 50.1834 119.776 50.2593 118.339 50.5358C116.568 50.8759 114.794 51.1154 113.013 51.3761C111.47 51.606 111.462 51.6271 111.846 54.0479C111.883 54.3355 111.922 54.633 111.969 54.9193C112.174 56.1935 112.345 57.5126 113.533 57.8932C113.252 58.2926 113.021 58.4536 112.984 58.7105L112.971 58.6919ZM96.0848 61.8344C95.9701 62.2728 95.8691 62.7395 95.7656 63.1865C96.0539 63.3106 96.3714 63.5821 96.6379 63.5375C98.8642 63.2092 101.085 62.8412 103.31 62.4223C103.527 62.3842 103.685 61.8898 103.871 61.6137C103.669 61.3776 103.484 61.0386 103.268 60.9254C102.759 60.6584 102.805 60.3903 103.058 59.8533C103.216 59.5103 103.327 58.9715 103.273 58.555C103.081 57.0674 102.791 55.6025 102.549 54.1214C102.445 53.4793 102.205 53.2583 101.829 53.317C99.6231 53.6428 97.4115 53.9289 95.2102 54.2943C94.3909 54.4306 94.319 54.7323 94.5677 56.0311C94.744 56.9259 94.9103 57.822 95.0667 58.7193C95.2712 59.8323 95.3941 61.0163 96.4004 61.3903C96.2329 61.654 96.1414 61.7263 96.1072 61.8517L96.0848 61.8344ZM111.494 55.848C111.378 54.8748 111.152 53.9058 110.977 52.9403C110.836 52.162 110.527 51.7986 110.033 51.8826C107.831 52.2381 105.628 52.5936 103.423 52.9293C103.008 52.9931 102.905 53.3694 103.013 53.9705C103.284 55.438 103.527 56.929 103.864 58.3676C103.992 58.8856 104.385 59.2783 104.719 59.8301C104.719 59.8301 104.654 59.9494 104.633 60.1033C104.58 60.6245 104.539 61.1642 104.486 61.6953C104.803 61.8056 105.137 62.0448 105.434 62.0063C107.503 61.7084 109.577 61.3696 111.639 61.0221C111.945 60.9724 112.397 61.1156 112.349 60.2748C112.31 59.5841 112.188 58.9545 111.668 58.7496C111.583 58.7202 111.501 58.63 111.591 58.6991C111.546 57.5755 111.575 56.7047 111.474 55.8505L111.494 55.848ZM121.96 58.5677C122.414 58.6501 122.896 58.87 123.331 58.8036C125.308 58.4975 127.278 58.1318 129.243 57.7363C129.478 57.6857 129.823 57.389 129.855 57.0924C129.921 56.4286 129.584 56.1596 129.175 56.1217C129.052 56.1073 128.911 55.8735 128.794 55.7475C128.813 55.5837 128.809 55.4733 128.838 55.4595C129.652 55.0517 129.513 54.132 129.251 53.0465C128.999 52.0305 128.833 50.9831 128.648 49.9383C128.512 49.1996 128.236 48.8622 127.771 48.9324C125.585 49.2556 123.405 49.5577 121.224 49.9206C120.444 50.0517 120.377 50.3125 120.6 51.5643C120.742 52.3525 120.904 53.1382 121.018 53.9402C121.182 55.0484 121.271 56.2065 122.067 56.3557C122.03 57.167 121.99 57.868 121.96 58.5677ZM136.965 49.6185C136.512 47.1261 136.476 47.1609 134.913 47.474C133.263 47.8086 131.605 48.0936 129.95 48.3884C128.964 48.5663 128.921 48.7029 129.228 50.2161C129.624 52.1816 129.998 54.1398 130.345 56.1216C130.507 57.0586 130.767 57.4383 131.384 57.298C133.363 56.8504 135.347 56.4425 137.337 56.0742C137.789 55.9854 138.084 55.6952 138.043 54.9846C137.992 54.124 137.547 54.5849 137.276 54.4384C137.189 54.3892 137.108 54.3089 136.859 54.0991C138.069 52.7729 137.238 51.1057 136.964 49.6086L136.965 49.6185ZM138.971 53.9772C138.868 54.4241 138.765 54.881 138.663 55.3379C139.002 55.4655 139.353 55.7629 139.669 55.7119C141.573 55.385 143.468 54.9886 145.365 54.612C145.504 54.5941 145.671 54.633 145.757 54.521C145.94 54.2957 146.222 53.9869 146.199 53.7278C146.182 53.4376 145.876 53.1041 145.664 52.8693C145.5 52.6889 145.281 52.6365 145.031 52.4974C145.735 51.3074 145.744 51.3061 145.457 49.7097C145.282 48.7442 145.057 47.7852 144.882 46.8197C144.751 46.1207 144.509 45.8092 144.055 45.888C141.945 46.2518 139.842 46.6045 137.729 46.9484C137.314 47.0122 137.225 47.417 137.322 48.0095C137.554 49.4113 137.728 50.8407 138.067 52.2086C138.197 52.7464 138.68 53.1275 139.064 53.6828C139.042 53.7461 138.995 53.853 138.963 53.9884L138.971 53.9772ZM146.71 53.1575C146.724 53.8917 146.995 54.2701 147.507 54.1736C149.142 53.8714 150.784 53.6287 152.416 53.3066C152.681 53.2522 152.909 52.9101 153.165 52.7056C152.933 52.3927 152.702 52.0898 152.468 51.7572C152.82 50.6629 152.83 50.6617 152.521 48.8967C152.327 47.7825 152.102 46.6721 151.908 45.5578C151.799 44.9468 151.59 44.6611 151.196 44.7323C149.421 45.0426 147.656 45.3516 145.879 45.642C145.395 45.7247 145.298 46.1407 145.449 46.8371C145.721 48.0825 145.934 49.3455 146.272 50.5521C146.407 51.0489 146.788 51.4231 147.027 51.7855C146.916 52.2536 146.719 52.6824 146.727 53.1351L146.71 53.1575ZM130.436 63.7631C131.142 63.6819 131.217 63.4099 130.971 62.2822C130.752 61.2921 130.523 60.3033 130.343 59.2982C130.203 58.5298 129.963 58.2381 129.484 58.3505C127.797 58.72 126.097 59.061 124.407 59.4006C123.827 59.516 123.244 59.6115 122.661 59.707C122.238 59.782 122.09 60.1238 122.251 60.819C122.455 61.7 122.66 62.581 122.827 63.477C123.022 64.5206 123.402 64.8848 124.032 64.6923C124.245 64.6244 124.479 64.6346 124.708 64.615C124.697 64.5258 124.684 64.4266 124.672 64.3374C126.594 64.1492 128.507 63.9723 130.427 63.7743L130.436 63.7631ZM139.911 61.0047C140.095 61.727 140.464 61.9314 140.888 61.8564C142.917 61.483 144.952 61.0785 146.982 60.7151C147.573 60.6083 147.655 60.154 147.425 59.3066C147.168 58.3316 146.996 57.3152 146.701 56.3651C146.581 55.9774 146.216 55.4196 146.028 55.4439C143.644 55.7221 141.271 56.0895 138.807 56.4487C139.216 58.1301 139.543 59.57 139.909 60.9948L139.911 61.0047ZM131.542 57.9733C130.716 58.1307 130.65 58.4013 130.967 59.6813C131.18 60.5511 131.386 61.442 131.551 62.3282C131.709 63.1548 132.042 63.394 132.506 63.3139C134.624 62.9289 136.749 62.5228 138.869 62.1478C139.292 62.0728 139.39 61.7375 139.271 61.1278C139.105 60.3124 138.929 59.4982 138.772 58.6716C138.522 57.4133 138.132 56.8183 137.603 56.8867C135.306 57.2947 133.421 57.6093 131.552 57.972L131.542 57.9733ZM115.378 62.3332L115.423 62.6803C115.001 62.7652 114.584 62.8997 114.154 62.9252C113.635 62.9621 113.522 63.3397 113.654 64.1292C113.987 66.0727 114.192 66.3384 115.398 66.1522C117.483 65.822 119.578 65.4905 121.658 65.1206C122.416 64.9821 122.504 64.6481 122.268 63.4484C122.125 62.7309 121.963 62.0258 121.85 61.3044C121.701 60.386 121.412 59.9493 120.804 60.0784C118.524 60.5348 116.247 60.9402 113.966 61.3966C113.75 61.4347 113.564 61.6402 113.359 61.7676C113.377 61.9064 113.416 62.0526 113.434 62.1915C114.077 62.2495 114.718 62.2976 115.371 62.3543L115.378 62.3332ZM87.452 66.188C86.832 66.2279 86.7074 66.6675 86.8789 67.6033C87.3894 70.3807 87.0264 70.7705 89.2924 70.437C91.3104 70.1356 93.3268 69.7436 95.3448 69.4422C95.8394 69.3682 95.9557 69.0204 95.8025 68.3041C95.6644 67.6262 95.5065 66.9509 95.3981 66.2692C95.2439 65.311 94.9437 65.0172 94.3327 65.1265C93.1887 65.3249 92.0254 65.3745 90.8699 65.4837C90.8866 65.6126 90.9033 65.7415 90.9199 65.8704C89.7644 65.9796 88.6127 66.1185 87.4533 66.1979L87.452 66.188ZM160.205 44.8474L151.693 63.6146L147.902 54.9695C147.26 55.0727 147.139 55.6128 147.338 56.5348C147.576 57.593 147.777 58.6762 148.071 59.7069C148.163 60.0278 148.531 60.4542 148.718 60.4199C150.42 60.1694 152.123 59.8483 153.808 59.4689C153.974 59.4273 154.188 58.8149 154.155 58.4863C154.016 57.254 153.777 56.0345 153.599 54.8074C153.51 54.2037 153.292 53.9999 152.938 54.066C152.711 54.1054 152.49 54.1138 152.261 54.1334C152.261 54.1334 152.262 54.1433 152.264 54.1532C150.816 54.4212 149.362 54.7201 147.911 54.9583L160.205 44.8474ZM103.96 67.9949C104.247 67.9478 104.686 67.5279 104.686 67.2153C104.685 66.3483 104.516 65.4324 104.362 64.5549C104.349 64.4557 104.025 64.3666 103.857 64.3884C101.437 64.6208 99.0189 64.8731 96.5974 65.0956C96.1585 65.1322 96.0866 65.4339 96.1985 66.0648C96.7239 69.1126 96.2267 69.1668 98.509 68.8816C99.1834 68.7944 99.8629 68.7468 100.54 68.6794C100.526 68.5703 100.512 68.4613 100.499 68.3621C101.654 68.2529 102.805 68.1847 103.95 67.9962L103.96 67.9949ZM105.61 63.9901C104.936 64.0774 104.816 64.3954 105.008 65.4899C105.422 67.9167 105.42 67.8969 106.911 67.6536C108.874 67.3189 110.84 67.004 112.808 66.709C113.462 66.6144 113.548 66.1093 113.335 65.1688C112.822 62.9966 113.131 63.0474 111.489 63.2095C110.632 63.2901 109.766 63.3819 108.91 63.4624C108.919 63.5319 108.928 63.6013 108.938 63.6806C107.832 63.7833 106.726 63.8861 105.613 64.01L105.61 63.9901ZM112.537 61.9646C110.009 61.9085 107.562 62.4772 105.108 63.067C107.651 63.3227 110.115 62.8023 112.537 61.9646ZM160.144 53.7286L158.333 57.5021Z" fill="black"/>
<path d="M144.233 64.8015L112.537 61.9646M112.537 61.9646C110.009 61.9085 107.562 62.4772 105.108 63.067C107.651 63.3227 110.115 62.8023 112.537 61.9646ZM160.144 53.7286L158.333 57.5021M76.9044 59.6371C76.4933 60.6684 77.0259 61.3557 77.5654 61.9413C76.6637 63.389 76.9586 65.902 78.1584 67.1483C79.2523 68.2773 80.3168 69.4907 81.4449 70.4943C81.979 70.9596 82.64 71.2371 83.2242 71.2321C84.2016 71.2266 85.153 70.9423 86.1185 70.7669C86.5225 70.6945 86.7268 70.3252 86.6322 69.6719C86.3827 67.8993 86.1233 66.128 85.8156 64.3729C85.7724 64.1164 85.4898 63.8807 85.2981 63.724C84.9694 63.4438 84.9373 63.1959 85.0827 62.683C85.2489 62.0968 85.391 61.4029 85.356 60.7419C85.2973 59.5093 85.0861 58.2661 84.9865 57.0286C84.9168 56.0999 84.639 55.8232 84.0999 55.9434C82.3155 56.3356 80.5259 56.6881 78.7476 57.0493C78.325 57.1342 77.8848 57.1609 77.4673 57.2855C77.1947 57.3611 76.9462 57.5445 76.5205 57.7609C77.1202 58.5 77.1633 58.9885 76.897 59.6582L76.9044 59.6371ZM94.4114 61.214C94.5143 60.9183 94.6927 60.5827 94.6654 60.2938C94.4607 58.5557 94.2151 56.8128 93.9323 55.0949C93.9041 54.8767 93.5108 54.5646 93.3323 54.5877C90.8728 54.9059 88.4283 55.2625 85.974 55.6203C85.4384 55.6896 85.2581 56.1666 85.3896 57.0269C85.6015 58.4313 85.7565 59.8632 85.9969 61.2539C86.0707 61.6679 86.3638 62.0635 86.6058 62.375C86.9451 62.8152 87.0978 63.1382 86.7441 63.6781C86.5753 63.9318 86.4488 64.5128 86.5381 64.8139C86.6301 65.1347 86.9955 65.3093 87.2518 65.498C87.3514 65.5658 87.4739 65.4995 87.5929 65.4841C89.8752 65.1989 92.1488 64.9249 94.4298 64.6299C95.1736 64.5336 95.397 64.0005 95.0735 62.903C94.9515 62.5053 94.5586 62.2739 94.171 61.8501C94.2557 61.6476 94.3503 61.4437 94.4312 61.2114L94.4114 61.214ZM152.883 44.3629C152.477 44.4254 152.355 44.7236 152.469 45.3743C152.649 46.3795 152.84 47.3833 152.981 48.3936C153.162 49.6407 153.285 50.9053 154.026 51.3337C154.022 52.2318 153.942 52.9379 154.04 53.6209C154.227 55.0689 154.504 56.5052 154.751 57.9454C154.999 59.3956 155.453 59.7099 156.116 58.8376C156.409 58.4468 156.668 57.9595 156.908 57.4747C157.905 55.44 158.889 53.3768 159.887 51.352C160.335 50.4471 160.482 49.4801 160.211 48.2447C159.92 46.9311 159.707 45.5975 159.475 44.2663L152.902 44.3603L152.883 44.3629ZM112.971 58.6919C112.912 59.1734 112.915 59.7378 113.017 60.2186C113.063 60.4144 113.461 60.6049 113.659 60.5793C116.002 60.2157 118.332 59.8336 120.663 59.3808C120.908 59.3289 121.197 58.8278 121.256 58.4269C121.346 57.8001 121.047 57.4355 120.62 57.41C120.518 57.403 120.417 57.2447 120.237 57.0966C121.262 55.6732 120.401 54 120.171 52.4567C119.816 50.1834 119.776 50.2593 118.339 50.5358C116.568 50.8759 114.794 51.1154 113.013 51.3761C111.47 51.606 111.462 51.6271 111.846 54.0479C111.883 54.3355 111.922 54.633 111.969 54.9193C112.174 56.1935 112.345 57.5126 113.533 57.8932C113.252 58.2926 113.021 58.4536 112.984 58.7105L112.971 58.6919ZM96.0848 61.8344C95.9701 62.2728 95.8691 62.7395 95.7656 63.1865C96.0539 63.3106 96.3714 63.5821 96.6379 63.5375C98.8642 63.2092 101.085 62.8412 103.31 62.4223C103.527 62.3842 103.685 61.8898 103.871 61.6137C103.669 61.3776 103.484 61.0386 103.268 60.9254C102.759 60.6584 102.805 60.3903 103.058 59.8533C103.216 59.5103 103.327 58.9715 103.273 58.555C103.081 57.0674 102.791 55.6025 102.549 54.1214C102.445 53.4793 102.205 53.2583 101.829 53.317C99.6231 53.6428 97.4115 53.9289 95.2102 54.2943C94.3909 54.4306 94.319 54.7323 94.5677 56.0311C94.744 56.9259 94.9103 57.822 95.0667 58.7193C95.2712 59.8323 95.3941 61.0163 96.4004 61.3903C96.2329 61.654 96.1414 61.7263 96.1072 61.8517L96.0848 61.8344ZM111.494 55.848C111.378 54.8748 111.152 53.9058 110.977 52.9403C110.836 52.162 110.527 51.7986 110.033 51.8826C107.831 52.2381 105.628 52.5936 103.423 52.9293C103.008 52.9931 102.905 53.3694 103.013 53.9705C103.284 55.438 103.527 56.929 103.864 58.3676C103.992 58.8856 104.385 59.2783 104.719 59.8301C104.719 59.8301 104.654 59.9494 104.633 60.1033C104.58 60.6245 104.539 61.1642 104.486 61.6953C104.803 61.8056 105.137 62.0448 105.434 62.0063C107.503 61.7084 109.577 61.3696 111.639 61.0221C111.945 60.9724 112.397 61.1156 112.349 60.2748C112.31 59.5841 112.188 58.9545 111.668 58.7496C111.583 58.7202 111.501 58.63 111.591 58.6991C111.546 57.5755 111.575 56.7047 111.474 55.8505L111.494 55.848ZM121.96 58.5677C122.414 58.6501 122.896 58.87 123.331 58.8036C125.308 58.4975 127.278 58.1318 129.243 57.7363C129.478 57.6857 129.823 57.389 129.855 57.0924C129.921 56.4286 129.584 56.1596 129.175 56.1217C129.052 56.1073 128.911 55.8735 128.794 55.7475C128.813 55.5837 128.809 55.4733 128.838 55.4595C129.652 55.0517 129.513 54.132 129.251 53.0465C128.999 52.0305 128.833 50.9831 128.648 49.9383C128.512 49.1996 128.236 48.8622 127.771 48.9324C125.585 49.2556 123.405 49.5577 121.224 49.9206C120.444 50.0517 120.377 50.3125 120.6 51.5643C120.742 52.3525 120.904 53.1382 121.018 53.9402C121.182 55.0484 121.271 56.2065 122.067 56.3557C122.03 57.167 121.99 57.868 121.96 58.5677ZM136.965 49.6185C136.512 47.1261 136.476 47.1609 134.913 47.474C133.263 47.8086 131.605 48.0936 129.95 48.3884C128.964 48.5663 128.921 48.7029 129.228 50.2161C129.624 52.1816 129.998 54.1398 130.345 56.1216C130.507 57.0586 130.767 57.4383 131.384 57.298C133.363 56.8504 135.347 56.4425 137.337 56.0742C137.789 55.9854 138.084 55.6952 138.043 54.9846C137.992 54.124 137.547 54.5849 137.276 54.4384C137.189 54.3892 137.108 54.3089 136.859 54.0991C138.069 52.7729 137.238 51.1057 136.964 49.6086L136.965 49.6185ZM138.971 53.9772C138.868 54.4241 138.765 54.881 138.663 55.3379C139.002 55.4655 139.353 55.7629 139.669 55.7119C141.573 55.385 143.468 54.9886 145.365 54.612C145.504 54.5941 145.671 54.633 145.757 54.521C145.94 54.2957 146.222 53.9869 146.199 53.7278C146.182 53.4376 145.876 53.1041 145.664 52.8693C145.5 52.6889 145.281 52.6365 145.031 52.4974C145.735 51.3074 145.744 51.3061 145.457 49.7097C145.282 48.7442 145.057 47.7852 144.882 46.8197C144.751 46.1207 144.509 45.8092 144.055 45.888C141.945 46.2518 139.842 46.6045 137.729 46.9484C137.314 47.0122 137.225 47.417 137.322 48.0095C137.554 49.4113 137.728 50.8407 138.067 52.2086C138.197 52.7464 138.68 53.1275 139.064 53.6828C139.042 53.7461 138.995 53.853 138.963 53.9884L138.971 53.9772ZM146.71 53.1575C146.724 53.8917 146.995 54.2701 147.507 54.1736C149.142 53.8714 150.784 53.6287 152.416 53.3066C152.681 53.2522 152.909 52.9101 153.165 52.7056C152.933 52.3927 152.702 52.0898 152.468 51.7572C152.82 50.6629 152.83 50.6617 152.521 48.8967C152.327 47.7825 152.102 46.6721 151.908 45.5578C151.799 44.9468 151.59 44.6611 151.196 44.7323C149.421 45.0426 147.656 45.3516 145.879 45.642C145.395 45.7247 145.298 46.1407 145.449 46.8371C145.721 48.0825 145.934 49.3455 146.272 50.5521C146.407 51.0489 146.788 51.4231 147.027 51.7855C146.916 52.2536 146.719 52.6824 146.727 53.1351L146.71 53.1575ZM130.436 63.7631C131.142 63.6819 131.217 63.4099 130.971 62.2822C130.752 61.2921 130.523 60.3033 130.343 59.2982C130.203 58.5298 129.963 58.2381 129.484 58.3505C127.797 58.72 126.097 59.061 124.407 59.4006C123.827 59.516 123.244 59.6115 122.661 59.707C122.238 59.782 122.09 60.1238 122.251 60.819C122.455 61.7 122.66 62.581 122.827 63.477C123.022 64.5206 123.402 64.8848 124.032 64.6923C124.245 64.6244 124.479 64.6346 124.708 64.615C124.697 64.5258 124.684 64.4266 124.672 64.3374C126.594 64.1492 128.507 63.9723 130.427 63.7743L130.436 63.7631ZM139.911 61.0047C140.095 61.727 140.464 61.9314 140.888 61.8564C142.917 61.483 144.952 61.0785 146.982 60.7151C147.573 60.6083 147.655 60.154 147.425 59.3066C147.168 58.3316 146.996 57.3152 146.701 56.3651C146.581 55.9774 146.216 55.4196 146.028 55.4439C143.644 55.7221 141.271 56.0895 138.807 56.4487C139.216 58.1301 139.543 59.57 139.909 60.9948L139.911 61.0047ZM131.542 57.9733C130.716 58.1307 130.65 58.4013 130.967 59.6813C131.18 60.5511 131.386 61.442 131.551 62.3282C131.709 63.1548 132.042 63.394 132.506 63.3139C134.624 62.9289 136.749 62.5228 138.869 62.1478C139.292 62.0728 139.39 61.7375 139.271 61.1278C139.105 60.3124 138.929 59.4982 138.772 58.6716C138.522 57.4133 138.132 56.8183 137.603 56.8867C135.306 57.2947 133.421 57.6093 131.552 57.972L131.542 57.9733ZM115.378 62.3332L115.423 62.6803C115.001 62.7652 114.584 62.8997 114.154 62.9252C113.635 62.9621 113.522 63.3397 113.654 64.1292C113.987 66.0727 114.192 66.3384 115.398 66.1522C117.483 65.822 119.578 65.4905 121.658 65.1206C122.416 64.9821 122.504 64.6481 122.268 63.4484C122.125 62.7309 121.963 62.0258 121.85 61.3044C121.701 60.386 121.412 59.9493 120.804 60.0784C118.524 60.5348 116.247 60.9402 113.966 61.3966C113.75 61.4347 113.564 61.6402 113.359 61.7676C113.377 61.9064 113.416 62.0526 113.434 62.1915C114.077 62.2495 114.718 62.2976 115.371 62.3543L115.378 62.3332ZM87.452 66.188C86.832 66.2279 86.7074 66.6675 86.8789 67.6033C87.3894 70.3807 87.0264 70.7705 89.2924 70.437C91.3104 70.1356 93.3268 69.7436 95.3448 69.4422C95.8394 69.3682 95.9557 69.0204 95.8025 68.3041C95.6644 67.6262 95.5065 66.9509 95.3981 66.2692C95.2439 65.311 94.9437 65.0172 94.3327 65.1265C93.1887 65.3249 92.0254 65.3745 90.8699 65.4837C90.8866 65.6126 90.9033 65.7415 90.9199 65.8704C89.7644 65.9796 88.6127 66.1185 87.4533 66.1979L87.452 66.188ZM160.205 44.8474L151.693 63.6146L147.902 54.9695C147.26 55.0727 147.139 55.6128 147.338 56.5348C147.576 57.593 147.777 58.6762 148.071 59.7069C148.163 60.0278 148.531 60.4542 148.718 60.4199C150.42 60.1694 152.123 59.8483 153.808 59.4689C153.974 59.4273 154.188 58.8149 154.155 58.4863C154.016 57.254 153.777 56.0345 153.599 54.8074C153.51 54.2037 153.292 53.9999 152.938 54.066C152.711 54.1054 152.49 54.1138 152.261 54.1334C152.261 54.1334 152.262 54.1433 152.264 54.1532C150.816 54.4212 149.362 54.7201 147.911 54.9583L160.205 44.8474ZM103.96 67.9949C104.247 67.9478 104.686 67.5279 104.686 67.2153C104.685 66.3483 104.516 65.4324 104.362 64.5549C104.349 64.4557 104.025 64.3666 103.857 64.3884C101.437 64.6208 99.0189 64.8731 96.5974 65.0956C96.1585 65.1322 96.0866 65.4339 96.1985 66.0648C96.7239 69.1126 96.2267 69.1668 98.509 68.8816C99.1834 68.7944 99.8629 68.7468 100.54 68.6794C100.526 68.5703 100.512 68.4613 100.499 68.3621C101.654 68.2529 102.805 68.1847 103.95 67.9962L103.96 67.9949ZM105.61 63.9901C104.936 64.0774 104.816 64.3954 105.008 65.4899C105.422 67.9167 105.42 67.8969 106.911 67.6536C108.874 67.3189 110.84 67.004 112.808 66.709C113.462 66.6144 113.548 66.1093 113.335 65.1688C112.822 62.9966 113.131 63.0474 111.489 63.2095C110.632 63.2901 109.766 63.3819 108.91 63.4624C108.919 63.5319 108.928 63.6013 108.938 63.6806C107.832 63.7833 106.726 63.8861 105.613 64.01L105.61 63.9901Z" stroke="white" stroke-width="0.5" stroke-miterlimit="10"/>
<path d="M15.4487 70.7236L46.5484 67.0028C47.8984 66.8382 49.2269 67.4428 49.9984 68.5731L63.2732 88.0207C64.8048 90.2728 63.4276 93.3449 60.73 93.6938L41.2325 96.2162C40.0821 96.365 38.9306 95.9595 38.1257 95.1157L15.5523 71.4463" fill="black"/>
<path d="M65.5168 36.6182L78.0408 32.0234C78.0891 32.0071 78.1473 31.9895 78.1969 31.9831L121.413 27.6123C121.552 27.5943 121.686 27.5367 121.795 27.4419L125.016 24.3631C125.151 24.2348 125.227 24.0435 125.212 23.8538L124.561 15.1554C124.544 15.0265 124.579 14.9011 124.645 14.7917L126.222 12.0164C126.321 11.8423 126.496 11.7188 126.694 11.6931L136.027 10.4858C136.265 10.455 136.501 10.5656 136.637 10.7598L141.936 18.5947C142.025 18.7344 142.168 18.8269 142.334 18.8658L149.011 20.2809C149.166 20.3113 149.31 20.4136 149.408 20.5422L151.974 24.2435C152.035 24.3264 152.067 24.423 152.082 24.5321L152.416 27.1205C152.463 27.4775 152.212 27.8023 151.854 27.8386L65.8173 37.8499C65.0636 37.9474 64.8034 36.8718 65.5254 36.607L65.5168 36.6182Z" fill="black"/>
<path d="M78.0124 33.5196L73.3985 29.8109C73.3985 29.8109 73.2964 29.7232 73.249 29.6688L70.2166 26.2598C70.0521 26.0794 69.9519 25.8503 69.9211 25.6123L69.1692 19.8007C69.0833 19.1362 69.5482 18.5215 70.2226 18.4343L77.3829 17.508C77.5119 17.4913 77.6433 17.4944 77.7774 17.5174L80.7171 18.1052L84.2318 18.8504C84.2318 18.8504 84.3348 18.8673 84.3857 18.8708L87.8426 19.1697C88.1788 19.1968 88.4835 19.3691 88.6979 19.6237L90.6759 22.1307C91.0612 22.6152 91.7514 22.7277 92.2747 22.4079C93.9373 21.3861 97.4525 19.9533 98.5222 25.2599C99.8111 31.6372 116.269 26.12 119.344 25.0264C119.663 24.9147 120.009 24.9405 120.311 25.093L125.502 27.8094" fill="black"/>
<path d="M98.5323 25.2586L124.905 21.6349L127.38 25.8018L99.796 29.804L98.5323 25.2586Z" fill="black"/>
<path d="M54.9383 30.6863C55.1426 31.1741 55.446 31.6491 55.5214 32.1536C56.0718 35.551 56.6011 38.9411 57.0722 42.3488C57.9558 48.7887 58.7811 55.2462 59.6646 61.6861C59.8083 62.7968 59.4997 63.1393 58.6368 62.9383L54.4837 30.8358C54.6385 30.7855 54.7835 30.7366 54.9383 30.6863Z" fill="black" stroke="white" stroke-width="0.25" stroke-miterlimit="10"/>
</svg>
